<?xml version="1.0" encoding="utf-8"?>
<!-- Generator: Adobe Illustrator 26.1.0, SVG Export Plug-In . SVG Version: 6.00 Build 0)  -->
<svg version="1.1" id="Layer_1" xmlns="http://www.w3.org/2000/svg" xmlns:xlink="http://www.w3.org/1999/xlink" x="0px" y="0px"
	 viewBox="0 0 612 792" style="enable-background:new 0 0 612 792;" xml:space="preserve" fill="#80a2ac">
<style type="text/css">
	.st0{display:none;}
</style>
<path d="M283.04,494.16v-98.38l-31.3,69.18h-27.36l-31.3-69.18v98.38h-51.29V307.4h56.03l40.25,87.86l40.51-87.86h55.77v186.77
	v131.62L282.61,624L283.04,494.16z"/>
<path class="st0" d="M298.64,424.32v-29.84l-9.49,20.98h-8.3l-9.49-20.98v29.84H255.8v-56.65h16.99L285,394.32l12.29-26.65h16.91
	v56.65H298.64z"/>
<path d="M450.32,390.32c-5.03-2.96-9.63-5.37-13.77-7.22c-4.15-1.85-8.67-3.52-13.55-5c-4.89-1.48-9.7-2.22-14.44-2.22
	c-3.7,0-6.74,0.59-9.11,1.76c-2.37,1.17-3.55,3.15-3.55,5.94c0,2.64,1.18,4.77,3.55,6.38c2.37,1.62,5.74,3.09,10.11,4.41
	c4.37,1.32,9.59,2.93,15.66,4.84c9.77,2.94,18.22,6.31,25.33,10.12c7.11,3.82,12.59,8.7,16.44,14.64s5.78,13.83,5.78,23.66
	c0,9.39-1.7,17.28-5.11,23.67c-3.41,6.38-8,11.48-13.77,15.3c-5.78,3.82-12.22,6.57-19.33,8.26c-7.11,1.68-14.37,2.53-21.77,2.53
	c-7.55,0-15.44-0.78-23.66-2.33c-8.22-1.56-16.18-3.7-23.88-6.44c-7.7-2.74-14.74-5.96-21.1-9.66l18.66-37.99
	c5.92,3.55,11.33,6.44,16.22,8.66c4.89,2.22,10.33,4.22,16.33,6c6,1.78,12.03,2.67,18.11,2.67c4.74,0,8.03-0.6,9.89-1.8
	c1.85-1.2,2.78-2.79,2.78-4.77c0-3.09-1.64-5.48-4.89-7.17c-3.26-1.69-7.52-3.31-12.77-4.85c-5.26-1.54-11.07-3.34-17.44-5.4
	c-9.18-3.09-16.74-6.58-22.66-10.48c-5.93-3.9-10.3-8.53-13.11-13.9c-2.82-5.37-4.22-11.87-4.22-19.52
	c0-11.62,2.74-21.32,8.22-29.12c5.48-7.8,12.7-13.71,21.66-17.76c8.96-4.04,18.62-6.07,28.99-6.07c7.7,0,15.14,0.93,22.32,2.78
	c7.18,1.85,13.92,4.11,20.22,6.77c6.29,2.67,11.81,5.19,16.55,7.55L450.32,390.32z"/>
<path d="M525.95,255.17c-57.94-30.73-115.9-61.44-173.85-92.15l-20.37-10.79c-17.08-9.04-34.42-9.03-51.55,0.05
	c-64.57,34.22-129.15,68.43-193.73,102.64c-17.24,9.14-25.97,22.99-25.94,41.19c0.03,22.87,0.03,45.75,0.02,68.62l-0.01,63.92
	c-0.01,24.5-0.01,49.01,0.02,73.51c0.02,17.5,8.75,31.38,25.26,40.15c64.88,34.45,129.8,68.84,194.73,103.21
	c8.24,4.36,16.8,6.57,25.45,6.57c2.49,0,5.02-0.19,7.52-0.56c6.12-0.91,12.2-2.95,18.07-6.06c1.77-0.94,2.77-1.45,2.77-1.45v-51.9
	l-26.96,14.31c-1.33,0.71-1.43,0.71-2.76,0C240.31,572.31,176,538.2,111.62,504.2c-1.93-1.02-2.24-1.35-2.24-3.67
	c0.11-65.65,0.11-134.18,0.01-203.68c0-1.95,0.13-2.3,2.22-3.4c71.18-37.6,133.89-70.84,191.72-101.62c2.4-1.28,2.94-1.28,5.33-0.01
	c64.92,34.55,130.68,69.35,192.46,102.03c1.36,0.72,1.48,0.83,1.48,2.43c-0.06,25.87-0.06,51.75-0.05,77.62l0,25.16l-0.01,25.56
	c-0.01,25.56-0.01,51.13,0.05,76.69c0,1.61-0.12,1.72-1.47,2.44c-34.73,18.38-69.45,36.78-104.16,55.18l-30,16.28v52.35l52.42-28.62
	c35.56-18.84,71.12-37.68,106.67-56.54c16.63-8.82,25.42-22.77,25.43-40.34c0.03-68.78,0.02-137.56,0.01-206.33
	C551.48,278.06,542.65,264.03,525.95,255.17z"/>
</svg>
