<?xml version="1.0" encoding="utf-8"?>
<!-- Generator: Adobe Illustrator 26.1.0, SVG Export Plug-In . SVG Version: 6.00 Build 0)  -->
<svg version="1.1" id="Layer_1" xmlns="http://www.w3.org/2000/svg" xmlns:xlink="http://www.w3.org/1999/xlink" x="0px" y="0px"
	 viewBox="0 0 612 792" style="enable-background:new 0 0 612 792;" xml:space="preserve" fill="#24232c">
<style type="text/css">
	.st0{display:none;}
</style>
<path d="M283,494.2v-98.4L251.7,465h-27.4l-31.3-69.2v98.4h-51.3V307.4h56l40.2,87.9l40.5-87.9h55.8v186.8v131.6l-51.7-1.8
	L283,494.2z"/>
<path class="st0" d="M298.6,424.3v-29.8l-9.5,21h-8.3l-9.5-21v29.8h-15.6v-56.6h17l12.2,26.6l12.3-26.6h16.9v56.6H298.6z"/>
<path d="M450.3,390.3c-5-3-9.6-5.4-13.8-7.2c-4.1-1.9-8.7-3.5-13.5-5c-4.9-1.5-9.7-2.2-14.4-2.2c-3.7,0-6.7,0.6-9.1,1.8
	s-3.5,3.1-3.5,5.9c0,2.6,1.2,4.8,3.5,6.4c2.4,1.6,5.7,3.1,10.1,4.4s9.6,2.9,15.7,4.8c9.8,2.9,18.2,6.3,25.3,10.1
	c7.1,3.8,12.6,8.7,16.4,14.6s5.8,13.8,5.8,23.7c0,9.4-1.7,17.3-5.1,23.7c-3.4,6.4-8,11.5-13.8,15.3c-5.8,3.8-12.2,6.6-19.3,8.3
	c-7.1,1.7-14.4,2.5-21.8,2.5c-7.5,0-15.4-0.8-23.7-2.3c-8.2-1.6-16.2-3.7-23.9-6.4s-14.7-6-21.1-9.7l18.7-38
	c5.9,3.5,11.3,6.4,16.2,8.7s10.3,4.2,16.3,6s12,2.7,18.1,2.7c4.7,0,8-0.6,9.9-1.8c1.9-1.2,2.8-2.8,2.8-4.8c0-3.1-1.6-5.5-4.9-7.2
	c-3.3-1.7-7.5-3.3-12.8-4.9c-5.3-1.5-11.1-3.3-17.4-5.4c-9.2-3.1-16.7-6.6-22.7-10.5c-5.9-3.9-10.3-8.5-13.1-13.9
	c-2.8-5.4-4.2-11.9-4.2-19.5c0-11.6,2.7-21.3,8.2-29.1s12.7-13.7,21.7-17.8c9-4,18.6-6.1,29-6.1c7.7,0,15.1,0.9,22.3,2.8
	s13.9,4.1,20.2,6.8c6.3,2.7,11.8,5.2,16.5,7.5L450.3,390.3z"/>
<path d="M526,255.2C468,224.4,410.1,193.7,352.1,163l-20.4-10.8c-17.1-9-34.4-9-51.5,0.1C215.6,186.5,151,220.7,86.5,254.9
	c-17.2,9.1-26,23-25.9,41.2c0,22.9,0,45.8,0,68.6l0,63.9c0,24.5,0,49,0,73.5c0,17.5,8.7,31.4,25.3,40.2
	c64.9,34.5,129.8,68.8,194.7,103.2c8.2,4.4,16.8,6.6,25.5,6.6c2.5,0,5-0.2,7.5-0.6c6.1-0.9,12.2-3,18.1-6.1c1.8-0.9,2.8-1.5,2.8-1.5
	v-51.9l-27,14.3c-1.3,0.7-1.4,0.7-2.8,0c-64.3-34.1-128.6-68.2-193-102.2c-1.9-1-2.2-1.4-2.2-3.7c0.1-65.6,0.1-134.2,0-203.7
	c0-2,0.1-2.3,2.2-3.4c71.2-37.6,133.9-70.8,191.7-101.6c2.4-1.3,2.9-1.3,5.3,0c64.9,34.6,130.7,69.3,192.5,102
	c1.4,0.7,1.5,0.8,1.5,2.4c-0.1,25.9-0.1,51.8,0,77.6v25.2l0,25.6c0,25.6,0,51.1,0,76.7c0,1.6-0.1,1.7-1.5,2.4
	c-34.7,18.4-69.5,36.8-104.2,55.2l-30,16.3v52.3l52.4-28.6c35.6-18.8,71.1-37.7,106.7-56.5c16.6-8.8,25.4-22.8,25.4-40.3
	c0-68.8,0-137.6,0-206.3C551.5,278.1,542.7,264,526,255.2z"/>
</svg>
