<?xml version="1.0" standalone="no"?>
<!DOCTYPE svg PUBLIC "-//W3C//DTD SVG 20010904//EN"
 "http://www.w3.org/TR/2001/REC-SVG-20010904/DTD/svg10.dtd">
<svg version="1.0" xmlns="http://www.w3.org/2000/svg"
 width="792.000000pt" height="792.000000pt" viewBox="0 0 792.000000 792.000000"
 preserveAspectRatio="xMidYMid meet">
<metadata>
Created by potrace 1.14, written by Peter Selinger 2001-2017
</metadata>
<g transform="translate(0.000000,792.000000) scale(0.100000,-0.100000)"
fill="#000000" stroke="none">
<path d="M3869 6456 c-5 -6 -9 -7 -9 -4 0 11 -100 -27 -180 -68 -41 -21 -78
-37 -82 -36 -5 1 -8 -2 -8 -6 0 -5 -19 -16 -42 -27 -24 -10 -45 -21 -48 -24
-3 -3 -36 -22 -75 -42 -124 -63 -350 -182 -360 -189 -9 -7 -230 -123 -340
-179 -27 -14 -52 -28 -55 -31 -3 -3 -57 -32 -120 -64 -63 -33 -146 -77 -185
-98 -38 -21 -83 -44 -100 -52 -16 -8 -58 -30 -92 -50 -35 -19 -63 -32 -63 -28
0 4 -4 2 -8 -3 -4 -6 -41 -28 -82 -50 -137 -70 -165 -86 -174 -96 -6 -5 -18
-9 -27 -9 -10 0 -19 -3 -21 -7 -1 -5 -25 -19 -52 -33 -67 -35 -158 -125 -191
-189 -15 -30 -32 -80 -38 -111 -18 -87 -16 -2195 2 -2270 24 -100 108 -217
183 -256 15 -8 28 -19 28 -24 0 -6 8 -10 18 -10 10 0 22 -4 28 -9 5 -5 50 -30
99 -56 126 -67 248 -131 330 -175 39 -21 111 -59 160 -85 50 -26 127 -67 173
-91 45 -24 121 -65 170 -90 48 -26 93 -51 100 -57 6 -5 12 -6 12 -2 0 5 8 1
18 -7 9 -9 35 -24 57 -35 37 -18 146 -75 310 -163 39 -21 108 -58 155 -82 104
-56 250 -133 308 -164 75 -40 165 -72 222 -79 94 -12 100 -12 100 -6 0 3 12 7
28 7 79 3 204 50 220 82 4 9 8 769 7 1687 l-1 1670 -264 1 c-146 1 -272 0
-281 -2 -13 -4 -38 -41 -44 -64 0 -3 -11 -25 -24 -50 -13 -25 -24 -46 -23 -47
1 -2 -13 -33 -30 -70 -18 -38 -32 -70 -33 -73 -1 -3 -15 -34 -32 -70 -17 -36
-58 -126 -93 -200 -113 -248 -134 -290 -139 -290 -6 1 -41 71 -82 165 -12 28
-37 84 -56 125 -92 197 -190 412 -191 420 -1 3 -18 39 -39 80 l-38 75 -277 0
c-186 1 -278 -3 -279 -10 0 -5 -1 -425 -2 -933 -2 -916 -2 -922 18 -923 11 0
126 0 255 -1 l235 -1 5 489 c3 285 9 481 14 469 27 -64 38 -88 73 -165 22 -47
82 -178 133 -292 l93 -208 137 0 137 0 62 136 c33 74 61 140 61 145 0 5 4 9 8
9 5 0 9 6 9 13 1 11 160 366 170 377 2 2 3 -440 2 -983 -1 -543 -5 -987 -9
-987 -5 0 -39 16 -77 36 -37 20 -95 50 -128 67 -33 17 -62 34 -65 37 -3 3 -39
22 -80 43 -41 20 -120 61 -175 91 -55 29 -140 74 -190 101 -166 88 -240 127
-272 147 -18 11 -33 16 -33 12 0 -4 -8 0 -17 8 -10 8 -81 48 -158 88 -77 40
-173 90 -212 111 -40 22 -108 57 -150 80 -43 23 -98 52 -123 65 l-46 25 1
1039 c0 1028 0 1040 20 1053 11 8 83 47 160 87 77 40 163 85 190 100 28 15
106 57 175 93 69 36 152 79 185 97 214 114 267 142 323 170 34 18 65 36 68 41
3 5 14 9 24 9 10 0 20 3 22 8 2 4 33 23 70 42 116 60 200 104 298 157 184 98
296 157 363 192 l68 35 87 -45 c49 -26 131 -69 183 -96 140 -75 244 -130 339
-181 127 -67 229 -121 285 -152 28 -15 109 -58 180 -95 72 -37 157 -82 190
-100 33 -18 103 -55 155 -83 52 -27 131 -69 175 -92 44 -24 136 -72 205 -108
69 -35 134 -70 145 -77 21 -13 21 -15 20 -1053 0 -572 -2 -1042 -5 -1044 -9
-6 -44 -24 -175 -93 -71 -37 -143 -75 -160 -85 -16 -10 -84 -46 -150 -80 -66
-35 -158 -83 -205 -108 -147 -80 -303 -162 -350 -185 -25 -12 -47 -25 -50 -29
-3 -4 -26 -17 -50 -28 -25 -12 -81 -41 -125 -65 l-80 -43 -3 -261 c-1 -144 0
-261 3 -261 8 0 89 42 95 49 3 3 25 16 50 29 78 39 149 79 165 92 8 7 15 9 15
5 0 -4 6 -2 14 4 7 6 33 22 57 35 24 13 76 40 114 61 39 21 97 52 130 69 33
17 62 34 63 39 2 4 7 5 12 2 5 -3 14 0 22 7 7 7 42 28 78 46 36 19 112 59 170
90 58 30 132 70 165 87 99 52 257 136 310 165 28 15 79 42 115 61 35 18 73 41
85 52 110 99 150 163 170 271 12 67 13 2183 1 2246 -11 58 -67 161 -110 206
-67 68 -49 57 -616 356 -52 28 -126 67 -165 88 -38 21 -110 59 -160 85 -49 26
-117 62 -150 80 -33 18 -112 59 -175 92 -63 33 -140 74 -170 90 -66 36 -224
119 -335 177 -44 22 -82 43 -85 46 -5 5 -110 60 -230 121 -30 15 -82 35 -115
44 -67 19 -211 25 -226 11z"/>
<path d="M4920 4542 c-138 -15 -276 -78 -365 -166 -105 -103 -146 -212 -141
-376 1 -65 8 -106 19 -129 9 -19 17 -40 17 -47 0 -7 25 -40 57 -74 46 -50 75
-70 157 -110 56 -27 133 -58 171 -71 39 -12 77 -24 85 -27 8 -3 20 -6 27 -8
44 -9 147 -49 174 -67 25 -17 34 -31 36 -57 3 -30 0 -38 -27 -53 -32 -20 -105
-24 -193 -13 -68 10 -207 60 -315 116 -91 47 -93 47 -104 26 -7 -11 -36 -70
-66 -131 -30 -60 -65 -131 -78 -157 -13 -26 -24 -54 -24 -61 0 -8 37 -31 83
-51 45 -21 89 -41 97 -45 16 -9 122 -40 153 -47 10 -2 26 -5 35 -8 9 -3 33 -8
52 -12 43 -7 65 -12 65 -14 0 -10 271 -15 315 -5 13 2 42 7 65 11 52 8 54 9
90 23 17 7 35 14 40 15 57 12 183 118 222 187 52 92 73 239 51 360 -21 114
-93 207 -209 272 -66 36 -202 92 -249 102 -3 1 -57 18 -121 38 -156 49 -203
93 -169 157 11 21 57 37 114 39 22 1 43 4 47 7 4 2 10 0 14 -6 3 -5 16 -9 28
-9 30 2 182 -54 261 -96 37 -19 68 -35 70 -35 1 0 11 19 22 43 10 23 21 44 25
47 3 3 27 46 52 97 26 50 55 108 67 127 l20 36 -23 14 c-23 15 -177 80 -237
101 -3 1 -12 5 -20 8 -21 9 -140 38 -170 42 -14 2 -25 4 -25 5 0 3 -171 5
-195 2z"/>
</g>
</svg>
