<?xml version="1.0" encoding="utf-8"?>
<!-- Generator: Adobe Illustrator 26.1.0, SVG Export Plug-In . SVG Version: 6.00 Build 0)  -->
<svg version="1.1" id="Layer_1" xmlns="http://www.w3.org/2000/svg" xmlns:xlink="http://www.w3.org/1999/xlink" x="0px" y="0px"
	 viewBox="0 0 576 576" fill="#dce8eb" style="enable-background:new 0 0 576 576;" xml:space="preserve">
<style type="text/css">
	.st0{stroke:#dce8eb;stroke-width:5;stroke-miterlimit:10;}
</style>
<path class="st0" d="M146.8,185.1c-20.4,0-41.1,8-44.6,12.3c-0.9,1.8-3,16.3,2,16.3c1.6,0,2.4,0.3,7.2-2c18-7.1,29.4-6.9,31.1-6.9
	c20.3-1.9,31.9,11.9,30.1,29.7v10.5c-17.1-4.1-26.9-4.2-31.7-4.2C116,239.5,93,252.6,93,281.4c0,31.6,28.2,38.4,39.2,38
	c16.4,0.1,32-7.2,42.3-20c8.3,18.5,13.5,17.2,13.7,17.2c1.5,0,2.7-0.6,3.9-1.3l8.6-6c1.5-0.9,2.7-2.4,2.8-4.2
	c-0.1-4.4-8-11.1-7.4-26.3v-46.8c0.9-12.9-3.3-25.5-12-35.3C173.8,188.1,160.1,183.9,146.8,185.1z M437.4,185.1
	c-30,0-47.2,18.7-46.8,37.8c0,26.1,26.4,34.4,29.4,35.3c25.4,7.9,28.8,8.2,35.9,14.2c6,6.1,5.2,18.2-3.6,23.4
	c-2.6,1.5-13.5,8.1-38.3,3c-8.3-1.6-12.6-3.6-19.3-6.4c-1.8-0.6-6-1.7-6,3.9v7.4c0,3.5,2.1,6.6,5.2,8.1c15.8,8,34.7,8.3,38.7,8.3
	c0.6,0,35.1,0,46.6-23.3c2.4-4.8,8.6-22.3-3-37.3c-9.6-11.2-17.9-12.5-42.5-20c-2.1-0.6-20.2-5.3-20.1-18
	c-0.9-16.4,21.3-17.2,26-16.9c18.8-0.3,28,6.7,33.1,7.2c2.2,0,3.3-1.3,3.3-4.3v-6.9c0.1-1.6-0.4-3.3-1.3-4.6
	C468.7,188,445.8,185.1,437.4,185.1z M209.7,188.9c-1.6,0.3-2.8,2-2.5,3.6c0.3,1.9,0.6,3.9,1.3,5.9l33.6,110.8
	c0.8,3.6,3.1,7.5,8.4,6.9h12.3c7.5,0.7,8.6-6.5,8.7-7.2l22.1-92.4l22.4,92.5c0.2,0.7,1.2,8,8.6,7.2h12.5c5.4,0.6,8-3.3,8.7-6.9
	c37.8-121.7,35.2-113.4,35.5-114.6c0.6-6.3-3-5.9-3.6-5.7h-13.4c-6.8-0.8-8.1,5.4-8.4,6.9l-24.9,96.2L308.4,196
	c-1-7.4-7.1-7.1-8.6-6.9h-11.5c-6.6-0.6-8.3,4.7-8.7,6.9l-22.4,94.8l-24-94.8c-0.6-3-2.6-7.7-8.4-7.1H209.7z M145.9,258.4
	c10.8,0.1,20.1,1.8,26.6,3.3c0,7.5,0.3,11.7-1.4,18.5c-2.1,7.2-11.4,20.3-33.3,20.6c-12.6,0.6-20.8-9.3-20.1-20.6
	C116.9,262.1,135.5,257.6,145.9,258.4z M483.6,350c-14,0.2-30.5,3.3-43.1,12.1c-3.9,2.7-3.2,6.4,1.1,5.9c14.1-1.7,45.5-5.5,51.1,1.7
	c5.6,7.2-6.2,36.8-11.5,50c-1.6,3.9,1.8,5.6,5.4,2.6c23.5-19.7,29.6-60.8,24.8-66.8C509.1,352.6,497.6,349.8,483.6,350z M66.3,365
	c-3.3,0.5-4.7,4.6-1.3,7.9C123.7,428,201.4,455,287.6,455c61.5,0,132.9-20.1,182.1-57.9c8.1-6.3,1.2-15.7-7.1-12
	c-55.2,24.4-115.2,36.1-169.9,36.1c-80.9,0-159.3-16.9-222.7-55.3C68.6,365.2,67.3,364.9,66.3,365z"/>
</svg>
