<?xml version="1.0" encoding="utf-8"?>
<!-- Generator: Adobe Illustrator 26.1.0, SVG Export Plug-In . SVG Version: 6.00 Build 0)  -->
<svg version="1.1" id="Layer_1" xmlns="http://www.w3.org/2000/svg" xmlns:xlink="http://www.w3.org/1999/xlink" x="0px" y="0px"
	 viewBox="0 0 576 576" style="enable-background:new 0 0 576 576;" fill="#dce8eb" xml:space="preserve">
<style type="text/css">
	.st0{fill-rule:evenodd;clip-rule:evenodd;}
	.st1{display:none;fill-rule:evenodd;clip-rule:evenodd;stroke:#dce8eb;stroke-width:10;stroke-miterlimit:10;}
</style>
<g>
	<path class="st0" d="M445.7,477.9L288,523l-157.7-45.1L96.5,95h382.9C468.2,222.6,456.9,350.3,445.7,477.9z M454.9,117.5H121.1
		l30.3,343L288,499.6l136.6-39.1L454.9,117.5z M195.7,342.8h45.1l1.1,28.2l46.2,15.8l46.2-15.8l3.3-50.7h-99.1l-2.3-45.1h103.7
		l3.3-45.1H187.8l-3.4-45.1h206.1l-5.6,90.1L377,404.7L288,434l-89-29.3L195.7,342.8z"/>
	<path class="st1" d="M96.5,95l33.8,382.9L288,523l157.7-45.1c11.3-127.6,22.5-255.3,33.8-382.9H96.5z M424.6,460.5L288,499.6
		l-136.6-39.1l-30.3-343h333.8L424.6,460.5z"/>
</g>
<path d="M85.9,92l1.6,18.3l33.2,366.2L288,527.2l167.4-50.7L490.1,92H85.9z M424.2,451.2L288,492.4l-136.2-41.3l-29.4-325.7h331.1
	L424.2,451.2z"/>
</svg>
