<?xml version="1.0" encoding="utf-8"?>
<!-- Generator: Adobe Illustrator 26.1.0, SVG Export Plug-In . SVG Version: 6.00 Build 0)  -->
<svg version="1.1" id="Layer_1" fill="#dce8eb" xmlns="http://www.w3.org/2000/svg" xmlns:xlink="http://www.w3.org/1999/xlink" x="0px" y="0px"
	 viewBox="0 0 576 576" style="enable-background:new 0 0 576 576;" xml:space="preserve">
<path d="M288,64c-8.1,0-15.9,2.9-22,9L73,266c-12.1,12.1-12.1,31.9,0,44l193,193c12.1,12.1,31.9,12.1,44,0l193-193
	c12.1-12.1,12.1-31.9,0-44L310,73C303.9,66.9,296.1,64,288,64z M288,96.5L479.5,288L288,479.5L96.5,288L229,155.5l28,28
	c-0.8,2.7-1,5.6-1,8.5c0,11.8,6.4,21.9,16,27.5v137c-9.6,5.6-16,15.7-16,27.5c0,17.7,14.3,32,32,32s32-14.3,32-32
	c0-11.8-6.4-21.9-16-27.5V231l49,49c-0.7,2.6-1,5.2-1,8c0,17.7,14.3,32,32,32s32-14.3,32-32s-14.3-32-32-32c-2.8,0-5.4,0.3-8,1
	l-57-57c0.7-2.6,1-5.2,1-8c0-17.7-14.3-32-32-32c-2.9,0-5.8,0.2-8.5,1l-28-28L288,96.5z"/>
</svg>
