<?xml version="1.0" encoding="utf-8"?>
<!-- Generator: Adobe Illustrator 26.1.0, SVG Export Plug-In . SVG Version: 6.00 Build 0)  -->
<svg version="1.1" id="Layer_1" xmlns="http://www.w3.org/2000/svg" xmlns:xlink="http://www.w3.org/1999/xlink" x="0px" y="0px"
	 viewBox="0 0 576 576" style="enable-background:new 0 0 576 576;" xml:space="preserve" fill="#dce8eb">
<style type="text/css">
	.st0{stroke:#dce8eb;stroke-width:8;stroke-miterlimit:10;}
</style>
<polygon class="st0" points="184.6,191.7 196.7,292 345.3,292 335.8,371.9 288,390.1 240.2,371.9 234.7,325.4 200.8,325.4 
	209.1,395.9 288,426.1 366.9,395.9 383.2,258.5 226.9,258.5 222.7,225.1 387.2,225.1 391.3,191.7 "/>
<path d="M85.9,91.4l1.6,18.3l33.2,366.2L288,526.6l167.4-50.7l34.7-384.5H85.9z M122.4,124.8h331.1l-29.4,325.7L288,491.9
	l-136.2-41.3L122.4,124.8z M184.6,191.7L196.7,292h148.6l-9.5,79.9L288,390.1l-47.8-18.3l-5.5-46.5h-33.9l8.4,70.5l78.9,30.2
	l78.9-30.2l16.3-137.4H226.9l-4.2-33.4h164.5l4-33.4H184.6z"/>
<path d="M728.4,234.9l1.6,18.3l33.2,366.2l167.4,50.7l167.4-50.7l34.7-384.5H728.4z M1066.7,594.1l-136.2,41.3l-136.2-41.3
	l-29.4-325.7h331.1L1066.7,594.1z"/>
</svg>
