<?xml version="1.0" encoding="utf-8"?>
<!-- Generator: Adobe Illustrator 26.1.0, SVG Export Plug-In . SVG Version: 6.00 Build 0)  -->
<svg version="1.1" id="Layer_1" xmlns="http://www.w3.org/2000/svg" xmlns:xlink="http://www.w3.org/1999/xlink" x="0px" y="0px"
	 viewBox="0 0 576 576" style="enable-background:new 0 0 576 576;" xml:space="preserve" fill="#dce8eb">
<style type="text/css">
	.st0{stroke:#dce8eb;stroke-width:10;stroke-miterlimit:10;}
</style>
<path class="st0" d="M477.9,91.4H98.1c-15.1,0-27.6,12.5-27.6,27.6v379.9c0,15.1,12.5,27.6,27.6,27.6h379.9
	c15.1,0,27.6-12.5,27.6-27.6V119.1C505.6,103.9,493.1,91.4,477.9,91.4z M484.9,498.9c0,3.8-3.1,6.9-6.9,6.9H98.1
	c-3.8,0-6.9-3.1-6.9-6.9V119.1c0-3.8,3.1-6.9,6.9-6.9h379.9c3.8,0,6.9,3.1,6.9,6.9V498.9z"/>
<path d="M98.1,91.4c-15.1,0-27.6,12.5-27.6,27.6v379.9c0,15.1,12.5,27.6,27.6,27.6h379.9c15.1,0,27.6-12.5,27.6-27.6V119.1
	c0-15.1-12.5-27.6-27.6-27.6H98.1z M98.1,112.1h379.9c3.8,0,6.9,3.1,6.9,6.9v379.9c0,3.8-3.1,6.9-6.9,6.9H98.1
	c-3.8,0-6.9-3.1-6.9-6.9V119.1C91.1,115.2,94.2,112.1,98.1,112.1z M267.3,288.3v130.3c0,20-7.6,25.1-20.7,25.1
	c-13.8,0-23.3-8.6-29.6-19.7l-32.5,19.7c9.4,20,32.5,41.4,64.6,41.4c35.5,0,59.7-18.9,59.7-60.3V288.3H267.3z M396.3,288.3
	c-35.3,0-57.9,22.6-57.9,52.2c0,32.2,19,47.4,47.5,59.5l9.9,4.2c18,7.9,26.9,12.7,26.9,26.3c0,11.3-8.6,19.5-25,19.5
	c-19.5,0-28.7-13.2-37.2-27.1l-31.1,20.7c11.6,22.9,32.5,41.4,69.2,41.4c37.6,0,65.5-19.5,65.5-55.1c0-33-18.9-47.7-52.6-62.1
	l-9.9-4.2c-17-7.4-24.3-12.1-24.3-24c0-9.6,7.4-17,18.9-17c11.4,0,18.7,4.8,25.4,17l30.8-19.8C439.5,297,421.4,288.3,396.3,288.3z"
	/>
</svg>
