<?xml version="1.0" encoding="utf-8"?>
<!-- Generator: Adobe Illustrator 26.1.0, SVG Export Plug-In . SVG Version: 6.00 Build 0)  -->
<svg version="1.1" id="Layer_1" xmlns="http://www.w3.org/2000/svg" xmlns:xlink="http://www.w3.org/1999/xlink" x="0px" y="0px"
	 viewBox="0 0 576 512" style="enable-background:new 0 0 576 512;" xml:space="preserve" fill="#dce8eb">
<path d="M288.5,0c-9.7,0-19.4,2.5-28,7.6L94.9,105.1c-16.8,9.9-27.2,28.1-27.2,47.6v214.7c0,20.2,11,38.8,28.8,48.5l54.3,29.6
	c8.4,4.6,17.4,6.8,26.5,6.8c9.7,0,19.3-2.6,28.1-7.8c16.9-10,27-27.8,27-47.5V163.5h-36.8V397c0,9.5-6.3,14.2-9,15.8
	c-2.7,1.6-9.9,4.9-18.2,0.4l-54.2-29.5c-5.9-3.2-9.6-9.4-9.6-16.2V152.7c0-6.5,3.5-12.6,9.1-15.9l165.6-97.5
	c5.7-3.4,12.9-3.3,18.7,0l165.6,97.5c5.6,3.3,9.1,9.4,9.1,15.9v214.9c0,6.6-3.7,12.9-9.6,16.2L297.3,474c-5.5,2.9-12.2,2.9-17.7,0
	l-32.4-17.7c-6.3,7.7-14,14.4-23.2,19.9c-2.9,1.8-5.9,3.3-8.8,4.4l46.7,25.7c8.5,4.4,17.3,6.7,26.5,6.7s18.1-2.3,26.5-6.7
	l165.6-90.5c17.7-9.6,28.7-28,28.7-48.2V152.7c0-19.5-10.4-37.7-27.2-47.6L316.5,7.6C307.9,2.5,298.2,0,288.5,0z M341.9,158.1
	c-58.2,0-87.6,20.3-87.6,60.2c0,45.3,52.1,52,77.2,55.2c3.6,0.5,6.8,0.9,9.3,1.4l11,1.9c38.3,6.4,47.1,10.7,47.1,23.1
	c0,6,0,24-57,24c-48.3,0-58.2-14.3-58.2-35.9h-36.8c0,33.2,16.5,72.7,95,72.7c77.5,0,93.8-33.1,93.8-60.8c0-46.3-45-53.9-77.8-59.5
	l-10.6-1.8c-3.1-0.6-6.9-1.1-11.2-1.6c-23.4-3-45.1-7.4-45.1-18.7c0-8.2,0-23.5,50.8-23.5c33.8,0,51,11.1,51,33.1h36.8
	C429.8,194.2,406.6,158.1,341.9,158.1z"/>
</svg>
