<?xml version="1.0" encoding="utf-8"?>
<!-- Generator: Adobe Illustrator 26.1.0, SVG Export Plug-In . SVG Version: 6.00 Build 0)  -->
<svg version="1.1" id="Layer_1" xmlns="http://www.w3.org/2000/svg" xmlns:xlink="http://www.w3.org/1999/xlink" x="0px" y="0px"
	 viewBox="0 0 576 576" fill="#dce8eb" style="enable-background:new 0 0 576 576;" xml:space="preserve">
<style type="text/css">
	.st0{display:none;}
	.st1{stroke:#dce8eb;stroke-width:2;stroke-miterlimit:10;}
</style>
<path class="st0" d="M189.3,564L189.3,564c0-12.5,0-25-0.1-37.5c-0.1-2.2-1.1-5.1-2.7-6.4c-1.3-1.1-4.5-1.1-6.1-0.2
	c-1.6,0.9-3,3.5-3,5.4c-0.2,10.7-0.1,21.5-0.1,32.2c0,12.7,0,25.5,0,38.2c0,4.5,2.1,7.1,6,7.1c2,0,4,0,6,0L189.3,564L189.3,564z"/>
<g>
	<path class="st1" d="M286.5,336.6c-31.7,25.7-68.5,33.9-106.8,37.5c-35.7,3.3-71.2,0.9-105.9-8.6c-20.8-5.7-40.3-13.9-57.3-28.7
		c-0.1,1.6-0.4,2.7-0.4,4c0,12.6,0.4,25.1-0.1,37.7c-0.6,11.6,4.3,20.4,12.9,27.7c11.6,10.1,25.3,16.3,39.8,20.9
		c36.3,11.6,73.6,13.8,111.4,10.8c0.8-0.1,1.6-0.3,2.6-0.3c4.9-0.1,8.1,2.6,8.5,7.2c0.4,4.5-2.3,8.2-7.2,8.5
		c-14.7,0.8-29.4,1.9-44.1,1.4c-29.8-0.8-59-5.4-86.8-16.5c-14.6-5.9-28.3-13.2-39.2-24.7c-9-9.5-13.6-20.2-13.6-33.6
		c0.1-76.1,0.4-152.1-0.1-228.2c-0.1-19.4,7.6-33.4,22.2-44.6C36.3,96.3,52.2,89.2,69,84.6c59-16.3,117.7-15.9,175.9,3.7
		c13.5,4.5,26.3,11.2,37.3,20.2c13.4,11,20.7,24.4,20.5,42.5c-0.6,73.6-0.1,147.5-0.3,221.1c0,8.3-2.4,11.8-7.9,11.8
		s-7.9-3.4-7.9-11.8C286.5,360.5,286.5,348.9,286.5,336.6z M152.9,88.9C123.1,89,95.4,92.1,68.5,101c-15.5,5-30.3,11.6-42.3,23.2
		c-13.8,13.4-13.6,27.6,0.1,41.1c1.2,1.2,2.4,2.3,3.7,3.3c9.8,8.1,21.1,13.5,33,17.9c22.8,8.3,46.4,12.1,70.5,13.4
		c34.2,1.7,67.9-0.9,100.6-11.5c14.8-4.7,29.1-11.2,40.8-22c15.2-14.1,15.2-29,0.3-43.2c-8.9-8.3-19.4-13.9-30.4-18.2
		C214.6,92.9,183.3,89.3,152.9,88.9z M286.3,177.1c-17.2,15.1-36.9,23.3-57.5,29c-35.3,9.6-71.2,11.8-107.3,8.6
		c-27.7-2.6-54.7-8.1-79.8-20.7c-8.9-4.5-17.1-10.3-25.7-15.8c0,13.4,0.6,26.9-0.1,40.5c-0.6,12.1,4,21.6,13.4,28.4
		c8.9,6.3,18.5,12.3,28.6,16.7c24.1,10.3,49.8,14.3,75.9,15.6c35,1.7,69.4-1,102.8-12.5c13.4-4.5,26.1-10.5,37-19.9
		c6.5-5.7,12.3-12.2,12.6-21.2C286.7,210,286.3,194.1,286.3,177.1z M16,256.6c0,14.8,0.4,28.4-0.1,42c-0.6,11.9,4.5,20.7,13.1,28.1
		c10.1,8.6,21.7,14.6,34.2,18.8c53.8,17.9,108.2,18.2,162.9,4.3c16.9-4.3,33-11,46.6-22.4c9.2-7.6,14.8-16.7,13.8-29.3
		c-0.4-4.7-0.1-9.5-0.1-14.5c0-8.8,0-17.4,0-26.3c-7,4.6-13.4,9.5-20.2,13.2c-7,3.9-14.6,7.2-22.1,10.1
		c-24.8,9.3-50.5,13.2-76.8,14.5c-32.6,1.6-64.8-1.2-96.3-10.3C51.3,279.3,32.6,271.2,16,256.6z"/>
	<path d="M40,387.4c-0.1-6.5,5.3-12.1,11.8-12.1s12.1,5.4,11.9,11.9c0,6.3-5.2,11.6-11.5,11.9C45.7,399.4,40.1,393.9,40,387.4z"/>
	<path d="M52,240.1c-6.5,0-11.9-5.4-11.9-12.1c0-6.3,5.3-11.6,11.6-11.8c6.5-0.1,12.1,5.2,12.2,11.8C63.9,234.5,58.4,240.1,52,240.1
		z"/>
	<path d="M52,319.6c-6.5,0.1-12.1-5.4-12.1-11.9c0-6.3,5.2-11.6,11.5-11.9c6.5-0.3,12.1,5.2,12.2,11.6C63.9,314,58.4,319.6,52,319.6
		z"/>
	<path d="M262.1,397.5c0,2.1,0,90.4,0,94.6c-0.1,2.6-1.4,6-3.6,7.4c-1.7,1.3-6,1.3-8.1,0.3c-0.4-0.1-3.3-2.6-3.9-3.6
		c-3.9-7.4-18.8-38.2-30.7-62.8c0,25.7,0,56.3,0,58.8c-0.1,2.6-1.4,6-3.6,7.4c-1.7,1.3-6,1.3-8.1,0.3c-2.2-1-4-4.1-4-6.2
		c-0.3-12.3-0.3-85.7,0-97.3c0-2,1.9-4.7,4-5.9c2.1-0.9,6.3-0.9,8.1,0.3c2,1.3,2.7,4.6,3.4,6.2l0,0c0.7,1.3,17.6,36.3,30.4,62.6
		c0-25.4,0-56.2,0.1-63.2c0-2,1.9-4.7,4-5.9c2.1-0.9,6.3-0.9,8.1,0.3C260.6,391.9,261.9,395.1,262.1,397.5z M495.8,492.7
		c2.4,2.4,0.3,6.3-2.6,8.6c-3.2,2.4-6.6,2.6-9.5,0c-2.4-2.1-4.1-2.1-6.9-0.9c-20.5,8.8-43.3-5.9-43.9-28.1
		c-0.1-8.6,0.1-16.9,0.1-25.4c0-7.9-0.1-15.9,0-23.8c0.4-17.5,14.6-31.4,32-31.3c17.2,0,31.3,13.8,31.6,31.1
		c0.3,16.4,0.1,32.7,0,49.2c0,2.3-0.4,4.6-1,6.9C494.1,483.5,490.9,487.7,495.8,492.7z M480.3,420.9c-0.3-7.9-8.5-13.8-16.5-13.2
		c-7.8,0.6-14.6,6.7-14.7,14.7c-0.3,16.7-0.4,33.4,0,50.1c0.3,9.5,9.6,16.2,20.5,13.2c-3.7-3.2-6.9-5.4-9.6-8.2
		c-4-4-4.1-8.3-0.7-11.8c3.4-3.4,7.8-3.4,11.8,0.6c2.6,2.6,5,5.9,7.6,8.9c0.7-0.4,1.2-0.9,1.9-1.3
		C480.5,456.2,480.8,438.6,480.3,420.9z M340.9,444.8c0,8.5,0.3,16.8,0.1,25.4c-0.4,17.1-13.9,29.7-29.6,30.4h-0.1
		c-17.4,1.4-33.7-11.8-34-30.4c-0.1-8.6,0.1-16.9,0.1-25.4c0-7.9-0.1-15.9,0-23.8c0.4-17.5,14.6-31.4,32-31.3c1,0,2.1,0,3.3,0.1l0,0
		c15.6,1.7,28,14.8,28.3,31C341,428.9,340.9,436.9,340.9,444.8z M324.9,420.4c-0.1-7.6-6.2-13.5-13.4-14.6l0,0
		c-1-0.1-2.1-0.1-3.2-0.1c-7.8,0.6-14.6,6.7-14.7,14.7c-0.3,16.7-0.4,33.4,0,50.1c0.3,9.2,8.9,15.5,19.2,13.5h0.1
		c7-1.3,11.9-6.6,12.2-13.5C325.2,453.8,325.2,437.1,324.9,420.4z M567.3,487.1c-12.8,0-25.4,0-38.9,0c0-2.4,0-4.1,0-6
		c0-26.4,0.1-52.8-0.1-79.4c-0.1-2.9-1.4-6.7-3.6-8.5c-1.7-1.4-6-1.4-8.1-0.3c-2.1,1.2-4,4.6-4,7.2c-0.3,14.2-0.1,28.5-0.1,42.6
		c0,16.8,0,33.7,0,50.6c0,6,2.7,9.5,7.9,9.5c16.1,0.1,32,0.1,48.1,0c4.5-0.1,6.9-2.9,7.4-7.3C576.5,490.7,573,487.1,567.3,487.1z
		 M398,500.3c13.2-5.6,21.1-20.1,18.5-33.9c-2.7-15.6-14.8-26-31.1-26.8c-9.2-0.6-15.9-7-16.1-15.6c-0.1-8.5,6.5-15.8,14.9-16.2
		c8.8-0.6,15.9,5.9,16.8,14.8c0.7,6,3.6,9.2,8.5,8.9c5-0.3,7.8-4,7.4-10.2c-1-16.5-15.5-29.7-32.3-29.4
		c-16.4,0.1-30.4,13.6-31.1,30.1c-0.8,18.1,12.8,32.6,31.3,33.6c10.6,0.6,18.1,9.2,16.1,18.8c-1.6,7.6-8.3,13.1-16.1,13
		c-7.6-0.1-14.2-6-15.4-13.6c-0.3-0.9-0.1-2-0.3-2.9c-0.7-4.5-3.7-7.3-8.1-7.2c-4.5,0-7.4,3.2-7.7,7.9c-0.3,6.2,1.6,12.2,5,17.2
		c8.6,12.6,25.1,17.5,39.2,11.5C398,500.4,398,500.3,398,500.3z"/>
</g>
</svg>
