<?xml version="1.0" encoding="utf-8"?>
<!-- Generator: Adobe Illustrator 26.1.0, SVG Export Plug-In . SVG Version: 6.00 Build 0)  -->
<svg version="1.1" id="Layer_1" xmlns="http://www.w3.org/2000/svg" xmlns:xlink="http://www.w3.org/1999/xlink" x="0px" y="0px"
	 viewBox="0 0 612 792" fill="#dce8eb" style="enable-background:new 0 0 612 792;" xml:space="preserve">
<style type="text/css">
	.st0{display:none;}
</style>
<path class="st0" d="M207.3,672L207.3,672c0-12.5,0-25-0.1-37.5c-0.1-2.2-1.1-5.1-2.7-6.4c-1.3-1.1-4.5-1.1-6.1-0.2
	c-1.6,0.9-3,3.5-3,5.4c-0.2,10.7-0.1,21.5-0.1,32.2c0,12.7,0,25.5,0,38.2c0,4.5,2.1,7.1,6,7.1c2,0,4,0,6,0L207.3,672L207.3,672z"/>
<g>
	<path d="M304.4,277.4c-32.7,26.6-70.8,35-110.3,38.7c-37,3.4-73.5,1-109.4-8.9c-21.5-5.9-41.6-14.4-59.1-29.7
		c-0.1,1.6-0.4,2.9-0.4,4.1c0,13,0.4,26-0.1,39c-0.5,12,4.5,21.1,13.3,28.6c12,10.4,26.1,16.8,41.1,21.6
		c37.5,12,76.1,14.2,115.1,11.1c0.8-0.1,1.6-0.3,2.6-0.3c5.1-0.1,8.3,2.7,8.8,7.4c0.4,4.7-2.3,8.5-7.4,8.8
		c-15.2,0.8-30.4,1.9-45.6,1.5c-30.8-0.8-60.9-5.6-89.6-17.1c-15.1-6-29.2-13.7-40.5-25.5c-9.3-9.7-14.1-20.9-14.1-34.6
		C8.8,243.5,9,165,8.5,86.4c-0.1-20,7.8-34.5,23-46.1C45.9,29.2,62.3,21.8,79.7,17c60.9-16.8,121.5-16.4,181.8,3.8
		c14,4.7,27.1,11.5,38.6,20.9c13.8,11.4,21.4,25.2,21.2,43.9c-0.5,76.1-0.1,152.3-0.3,228.4c0,8.6-2.5,12.2-8.2,12.2
		s-8.2-3.6-8.2-12.2C304.4,302.1,304.4,290.1,304.4,277.4z M166.4,21.6C135.6,21.7,107,24.8,79.3,34c-16,5.2-31.3,12-43.7,24
		c-14.2,13.8-14.1,28.5,0.1,42.4c1.2,1.2,2.5,2.3,3.8,3.4c10.1,8.3,21.8,14,34.1,18.5c23.5,8.6,47.9,12.5,72.8,13.8
		c35.3,1.8,70.1-1,103.9-11.9c15.3-4.9,30.1-11.5,42.2-22.7c15.7-14.5,15.7-30,0.3-44.6c-9.2-8.6-20-14.4-31.5-18.9
		C230.2,25.7,197.8,22,166.4,21.6z M304.3,112.7c-17.8,15.6-38,24.1-59.4,30c-36.4,10-73.5,12.2-110.9,8.9
		c-28.6-2.6-56.5-8.3-82.4-21.4c-9.2-4.7-17.7-10.7-26.6-16.3c0,13.8,0.5,27.8-0.1,41.7C24.4,168.1,29,178,38.7,185
		c9.2,6.6,19.2,12.7,29.6,17.2c24.9,10.7,51.5,14.8,78.4,16.1c36.1,1.8,71.7-1.1,106.2-12.9c13.8-4.7,27-10.8,38.2-20.5
		c6.7-5.9,12.7-12.6,13-21.9C304.7,146.6,304.3,130.2,304.3,112.7z M25.1,194.8c0,15.3,0.4,29.3-0.1,43.4
		c-0.5,12.3,4.7,21.4,13.5,29c10.4,8.9,22.4,15.1,35.3,19.4c55.6,18.5,111.8,18.9,168.2,4.4c17.5-4.5,34.1-11.4,48.2-23.1
		c9.4-7.8,15.3-17.2,14.2-30.2c-0.4-4.9-0.1-9.9-0.1-14.9c0-9,0-17.9,0-27.1c-7.3,4.8-13.8,9.7-20.9,13.7c-7.3,4-15.1,7.4-22.9,10.4
		c-25.6,9.6-52.1,13.7-79.2,14.9c-33.7,1.6-66.9-1.2-99.5-10.7C61.5,218.2,42.2,209.9,25.1,194.8z"/>
	<path d="M49.8,329.9c-0.1-6.7,5.5-12.5,12.2-12.5s12.5,5.6,12.3,12.3c0,6.6-5.3,12-11.9,12.3C55.7,342.2,50,336.6,49.8,329.9z"/>
	<path d="M62.2,177.7c-6.7,0-12.3-5.6-12.3-12.5c0-6.6,5.5-12,12-12.2c6.7-0.1,12.5,5.3,12.6,12.2C74.5,172,68.9,177.7,62.2,177.7z"
		/>
	<path d="M62.2,259.8c-6.7,0.1-12.5-5.6-12.5-12.3c0-6.6,5.3-12,11.9-12.3c6.7-0.3,12.5,5.3,12.6,12
		C74.5,254.1,68.9,259.8,62.2,259.8z"/>
	<path d="M279.2,340.3c0,2.2,0,93.3,0,97.7c-0.1,2.6-1.5,6.2-3.7,7.7c-1.8,1.4-6.2,1.4-8.3,0.3c-0.4-0.1-3.4-2.7-4-3.7
		c-4-7.7-19.4-39.4-31.8-64.9c0,26.6,0,58.2,0,60.8c-0.1,2.6-1.5,6.2-3.7,7.7c-1.8,1.4-6.2,1.4-8.3,0.3c-2.2-1.1-4.1-4.2-4.1-6.4
		c-0.3-12.7-0.3-88.6,0-100.5c0-2.1,1.9-4.9,4.1-6c2.2-1,6.6-1,8.3,0.3c2.1,1.4,2.9,4.8,3.6,6.4l0,0c0.7,1.4,18.2,37.5,31.5,64.6
		c0-26.3,0-58,0.1-65.3c0-2.1,1.9-4.9,4.1-6c2.2-1,6.6-1,8.3,0.3C277.7,334.6,279.1,337.8,279.2,340.3z M520.6,438.6
		c2.5,2.5,0.3,6.6-2.7,8.9c-3.3,2.5-6.8,2.7-9.9,0c-2.5-2.2-4.2-2.2-7.1-1c-21.2,9-44.8-6-45.3-29c-0.1-8.9,0.1-17.5,0.1-26.3
		c0-8.2-0.1-16.4,0-24.6c0.4-18.1,15.1-32.4,33-32.3c17.8,0,32.3,14.2,32.6,32.2c0.3,17,0.1,33.8,0,50.8c0,2.3-0.4,4.8-1.1,7.1
		C518.9,429.1,515.6,433.5,520.6,438.6z M504.6,364.5c-0.3-8.2-8.8-14.2-17.1-13.7c-8.1,0.5-15.1,7-15.2,15.2
		c-0.3,17.2-0.4,34.5,0,51.7c0.3,9.9,10,16.7,21.2,13.7c-3.8-3.3-7.1-5.6-10-8.5c-4.1-4.1-4.2-8.6-0.7-12.2
		c3.6-3.6,8.1-3.6,12.2,0.5c2.7,2.7,5.2,6,7.8,9.2c0.7-0.4,1.2-1,1.9-1.4C504.8,400.9,505.2,382.7,504.6,364.5z M360.6,389.2
		c0,8.8,0.3,17.4,0.1,26.3c-0.4,17.7-14.4,30.7-30.5,31.5h-0.1c-17.9,1.5-34.8-12.2-35.2-31.5c-0.1-8.9,0.1-17.5,0.1-26.3
		c0-8.2-0.1-16.4,0-24.6c0.4-18.1,15.1-32.4,33-32.3c1.1,0,2.2,0,3.4,0.1l0,0c16.1,1.8,28.9,15.3,29.2,32
		C360.8,372.7,360.6,381,360.6,389.2z M344.1,364c-0.1-7.8-6.4-14-13.8-15.1l0,0c-1.1-0.1-2.2-0.1-3.3-0.1
		c-8.1,0.5-15.1,7-15.2,15.2c-0.3,17.2-0.4,34.5,0,51.7c0.3,9.4,9.2,16,19.8,14h0.1c7.3-1.4,12.3-6.8,12.6-14
		C344.5,398.5,344.4,381.2,344.1,364z M594.5,432.8c-13.1,0-26.3,0-40.2,0c0-2.5,0-4.2,0-6.2c0-27.2,0.1-54.6-0.1-82
		c-0.1-3-1.5-7-3.7-8.8c-1.8-1.5-6.2-1.5-8.3-0.3c-2.2,1.2-4.1,4.8-4.1,7.4c-0.3,14.6-0.1,29.4-0.1,44.1c0,17.4,0,34.9,0,52.3
		c0,6.2,2.9,9.7,8.2,9.7c16.6,0.1,33.1,0.1,49.7,0c4.7-0.1,7.1-3,7.7-7.5C604,436.5,600.4,432.8,594.5,432.8z M419.6,446.5
		c13.7-5.7,21.8-20.8,19.2-35c-2.9-16.1-15.3-26.8-32.2-27.6c-9.4-0.5-16.4-7.3-16.6-16.1c-0.1-8.8,6.7-16.3,15.5-16.7
		c9-0.5,16.4,6,17.4,15.3c0.7,6.3,3.7,9.4,8.8,9.2c5.2-0.3,8.1-4.1,7.7-10.5c-1.1-17.1-16-30.7-33.4-30.4
		c-17,0.1-31.5,14.1-32.2,31.1c-0.8,18.8,13.1,33.7,32.3,34.6c10.9,0.5,18.6,9.4,16.6,19.4c-1.6,7.8-8.6,13.5-16.6,13.4
		c-7.8-0.1-14.6-6.2-15.9-14.1c-0.3-1-0.1-2.1-0.3-3c-0.7-4.7-3.8-7.5-8.3-7.4c-4.7,0-7.7,3.3-7.9,8.2c-0.3,6.4,1.6,12.6,5.2,17.8
		c8.9,13,26,18.1,40.5,11.9C419.6,446.7,419.6,446.5,419.6,446.5z"/>
</g>
</svg>
