<?xml version="1.0" encoding="utf-8"?>
<!-- Generator: Adobe Illustrator 26.1.0, SVG Export Plug-In . SVG Version: 6.00 Build 0)  -->
<svg version="1.1" id="Layer_1" xmlns="http://www.w3.org/2000/svg" xmlns:xlink="http://www.w3.org/1999/xlink" x="0px" y="0px"
	 viewBox="0 0 576 576" fill="#dce8eb" style="enable-background:new 0 0 576 576;" xml:space="preserve">
<style type="text/css">
	.st0{stroke:#dce8eb;stroke-width:8;stroke-miterlimit:10;}
</style>
<g>
	<path d="M288,138.5c-157,0-284.2,66.8-284.2,149.4S131,437.5,288,437.5s284.2-66.9,284.2-149.5S445,138.5,288,138.5z M288,153.4
		c152.2,0,269.3,64.1,269.3,134.5S440.1,422.5,288,422.5c-152.2,0-269.3-64.2-269.3-134.5S135.9,153.4,288,153.4z M253.5,183
		l-28.8,148.1h32.1l16.5-84.9c26.1,0,36.9-1,41.6,4.1c4.9,5.3,2.4,11.1-11.1,80.8h32.5c14.1-72.2,20.3-87.5,7.3-99.4
		c-12.4-11.4-38.1-9.4-65.7-9.4l7.7-39.3H253.5z M119,222.4L90.3,370.6h32.3l7.7-39.4c36.1,0,58.5,2.7,79.3-16.8
		c23-21.1,28.9-58.6,12.5-77.4c-8.5-9.9-22.2-14.7-40.9-14.7H119z M371.1,222.4l-28.8,148.2h32.3l7.7-39.4c38,0,58.9,2.2,79.3-16.8
		c23-21.1,28.9-58.6,12.5-77.4c-8.5-9.9-22.2-14.7-40.9-14.7H371.1z M169.7,245.8c20.2,0.6,31.6,4.9,26.9,30.2
		c-7,35.6-31.4,32-61.6,32l12-62.1C155.2,245.9,162.9,245.6,169.7,245.8z M421.8,245.8c20.2,0.6,31.6,4.9,26.8,30.2
		c-7,36.1-32.2,32-61.6,32l12-62.1C407.3,245.9,415,245.6,421.8,245.8z"/>
	<path class="st0" d="M288,138.5c-157,0-284.2,66.8-284.2,149.4S131,437.5,288,437.5s284.2-66.9,284.2-149.5S445,138.5,288,138.5z
		 M288,422.5c-152.2,0-269.3-64.2-269.3-134.5S135.9,153.4,288,153.4c152.2,0,269.3,64.1,269.3,134.5S440.1,422.5,288,422.5z"/>
</g>
</svg>
