<?xml version="1.0" encoding="utf-8"?>
<!-- Generator: Adobe Illustrator 26.1.0, SVG Export Plug-In . SVG Version: 6.00 Build 0)  -->
<svg version="1.1" id="Layer_1" xmlns="http://www.w3.org/2000/svg" xmlns:xlink="http://www.w3.org/1999/xlink" x="0px" y="0px"
	 viewBox="0 0 576 576" fill="#dce8eb" style="enable-background:new 0 0 576 576;" xml:space="preserve">
<style type="text/css">
	.st0{stroke:#dce8eb;stroke-miterlimit:10;}
</style>
<g>
	<path d="M339.4,460.5h41.8l-13,39.2h-29v-39.2H339.4z M339.4,386h66.5l-13,39.2h-53.6L339.4,386L339.4,386z M339.4,311.5h91.1
		l-13,39.2h-78.3v-39.2H339.4z M471.8,311.5H576v39.2H458.8L471.8,311.5z M447.1,386h128.8v39.2H434.3L447.1,386z M422.5,460.5H576
		v39.2H409.5L422.5,460.5z"/>
	<path class="st0" d="M555,291.4h21c-16-49-65.3-82.9-119.3-78.7c-3.9,0.3-5.5-0.7-7-4.5c-17.6-47.9-68.4-74.1-117.3-60.4
		c-4,1.2-5.5,0.3-7.4-3.1C298.2,94,246.9,68.8,189.7,78.3c-55.9,9.3-101.2,60.9-102.4,117.6c-0.3,12,1.3,24.1,2,36.7
		c-1,0.2-3,0.7-4.9,1.2c-60.4,12.3-98.1,76.1-79.9,134.9c14.4,46.9,54.6,76.2,104.8,76.2c71.3,0,142.7,0,213.9,0v-19.4
		c-12.4,0-24.8,0-37.2,0c0-0.1,0-0.1,0-0.2c-61.6,0-123.2,0.5-184.7-0.2c-41.7-0.4-78.3-36.4-82.2-77.4
		c-4.5-47.5,27.8-86.6,68.7-94.9c4.8-1,9.6-1.4,14.3-2c9.1-1.2,11.7-5.7,9.9-14.9c-2.2-10.8-5.2-21.9-5.2-32.7
		c-0.3-62.2,50.3-110.8,112.6-107c42.3,2.5,72.6,24.3,90.9,62.5c0.7,1.6,1.5,3.3,2.2,5c3.3,6.9,7.4,8.6,14.9,6.2
		c6.2-2,12.1-4.6,18.5-5.4c39.8-6.3,75.8,16.8,87.1,55.3c0.8,2.8,1.5,5.4,2.9,8c2.8,5.3,7.4,5.8,13,5
		C494.6,225.4,537.2,249.2,555,291.4z"/>
</g>
</svg>
