<?xml version="1.0" encoding="utf-8"?>
<!-- Generator: Adobe Illustrator 26.1.0, SVG Export Plug-In . SVG Version: 6.00 Build 0)  -->
<svg version="1.1" id="Layer_1" xmlns="http://www.w3.org/2000/svg" xmlns:xlink="http://www.w3.org/1999/xlink" x="0px" y="0px"
	 viewBox="0 0 612 792" style="enable-background:new 0 0 612 792;" xml:space="preserve" fill="#dce8eb">
<g>
	<path d="M381.9,286.1c-33.5,27.2-72.5,35.9-113,39.7c-37.9,3.5-75.3,1-112.1-9.1c-22-6-42.6-14.7-60.6-30.4
		c-0.1,1.7-0.4,2.9-0.4,4.2c0,13.3,0.4,26.6-0.1,40c-0.6,12.3,4.6,21.6,13.6,29.3c12.3,10.7,26.8,17.3,42.1,22.2
		c38.4,12.3,78,14.6,117.9,11.4c0.8-0.1,1.7-0.3,2.7-0.3c5.2-0.1,8.6,2.8,9,7.6c0.4,4.8-2.4,8.7-7.6,9c-15.6,0.8-31.1,2-46.7,1.5
		c-31.6-0.8-62.4-5.8-91.9-17.5c-15.4-6.2-29.9-14-41.5-26.1c-9.5-10-14.4-21.5-14.4-35.5c0.1-80.5,0.4-161-0.1-241.5
		c-0.1-20.5,8-35.3,23.6-47.3c14.7-11.4,31.6-18.9,49.4-23.8C214,2.1,276.2,2.5,337.9,23.3c14.3,4.8,27.8,11.8,39.6,21.5
		c14.2,11.6,21.9,25.8,21.7,45c-0.6,78-0.1,156.1-0.3,234.1c0,8.8-2.5,12.5-8.4,12.5s-8.4-3.6-8.4-12.5
		C381.9,311.5,381.9,299.1,381.9,286.1z M240.5,24c-31.6,0.1-60.9,3.4-89.3,12.8c-16.4,5.3-32.1,12.3-44.7,24.5
		c-14.6,14.2-14.4,29.2,0.1,43.5c1.3,1.3,2.5,2.4,3.9,3.5c10.4,8.6,22.3,14.3,34.9,18.9c24.1,8.8,49.1,12.8,74.6,14.2
		c36.2,1.8,71.8-1,106.4-12.2c15.7-5,30.9-11.8,43.2-23.3c16.1-14.9,16.1-30.7,0.3-45.7c-9.4-8.8-20.5-14.7-32.3-19.4
		C305.9,28.2,272.7,24.4,240.5,24z M381.8,117.4c-18.2,16-39,24.7-60.9,30.7c-37.3,10.2-75.3,12.5-113.6,9.1
		c-29.3-2.7-57.9-8.6-84.4-21.9c-9.4-4.8-18.1-10.9-27.2-16.7c0,14.2,0.6,28.5-0.1,42.8c-0.6,12.8,4.2,22.9,14.2,30
		c9.4,6.7,19.6,13,30.3,17.7c25.5,10.9,52.7,15.1,80.4,16.5c37,1.8,73.5-1.1,108.8-13.2c14.2-4.8,27.6-11.1,39.1-21
		c6.9-6,13-12.9,13.3-22.4C382.2,152.2,381.8,135.3,381.8,117.4z M95.7,201.5c0,15.7,0.4,30-0.1,44.5c-0.6,12.6,4.8,21.9,13.9,29.7
		c10.7,9.1,23,15.4,36.2,19.9c56.9,18.9,114.6,19.4,172.4,4.5c18-4.6,34.9-11.6,49.4-23.7c9.7-8,15.7-17.7,14.6-31
		c-0.4-5-0.1-10.1-0.1-15.3c0-9.3,0-18.4,0-27.8c-7.4,4.9-14.2,10-21.5,14c-7.4,4.1-15.4,7.6-23.4,10.7c-26.2,9.8-53.4,14-81.2,15.3
		c-34.5,1.7-68.6-1.3-102-10.9C133,225.5,113.2,216.9,95.7,201.5z"/>
	<path d="M381.9,402.4c0-8.4-0.1-16.8,0-25.2c0.4-18.5,15.4-33.2,33.8-33.1c18.2,0,33.1,14.6,33.4,33c0.3,17.4,0.1,34.6,0,52
		c0,2.4-0.4,4.9-1.1,7.3c-1.4,4.9-4.8,9.4,0.4,14.6c2.5,2.5,0.3,6.7-2.8,9.1c-3.4,2.5-7,2.8-10.1,0c-2.5-2.2-4.3-2.2-7.3-1
		c-21.7,9.3-45.9-6.2-46.4-29.7C381.6,420.2,381.9,411.3,381.9,402.4z M430.2,432.4c0.7-0.4,1.3-1,2-1.4c0-18.7,0.4-37.3-0.1-56
		c-0.3-8.4-9-14.6-17.5-14c-8.3,0.6-15.4,7.2-15.6,15.6c-0.3,17.7-0.4,35.3,0,53c0.3,10.1,10.2,17.1,21.7,14
		c-3.9-3.4-7.3-5.8-10.2-8.7c-4.2-4.2-4.3-8.8-0.7-12.5c3.6-3.6,8.3-3.6,12.5,0.6C425,425.8,427.5,429.1,430.2,432.4z"/>
	<path d="M344.8,458.9c-14.9,6.3-32.5,1.1-41.5-12.2c-3.6-5.5-5.8-11.8-5.3-18.2c0.3-5,3.4-8.4,8.1-8.4c4.6-0.1,7.9,2.8,8.6,7.6
		c0.1,1,0,2.1,0.3,3.1c1.3,8.1,8.3,14.3,16.3,14.4c8.1,0.1,15.3-5.8,17-13.7c2.1-10.2-5.8-19.4-17-19.9c-19.6-1-33.9-16.3-33.1-35.5
		c0.7-17.4,15.6-31.7,33-31.8c17.8-0.3,33.1,13.6,34.2,31.1c0.4,6.6-2.5,10.5-7.9,10.8c-5.2,0.3-8.3-2.9-9-9.4
		c-1-9.5-8.6-16.3-17.8-15.7c-9,0.4-16,8.1-15.8,17.1c0.1,9.1,7.3,16,17,16.5c17.3,0.8,30,11.8,33,28.3c2.7,14.6-5.6,30-19.6,35.9
		C344.9,458.7,344.8,458.7,344.8,458.9z"/>
	<path d="M482.9,445c14.3,0,27.8,0,41.2,0c6,0,9.7,3.8,9.1,9c-0.6,4.6-3.1,7.6-7.9,7.7c-17,0.1-33.9,0.1-50.9,0
		c-5.5,0-8.4-3.6-8.4-10c0-17.8,0-35.8,0-53.6c0-15-0.1-30.2,0.1-45.2c0-2.7,2-6.3,4.2-7.6c2.2-1.3,6.7-1.3,8.6,0.3
		c2.2,1.8,3.6,5.9,3.8,9c0.3,28,0.1,56.1,0.1,84C482.9,440.6,482.9,442.5,482.9,445z"/>
	<path d="M121.1,339.9c-0.1-6.9,5.6-12.8,12.5-12.8c6.9,0,12.8,5.8,12.6,12.6c0,6.7-5.5,12.3-12.2,12.6
		C127.1,352.6,121.2,346.8,121.1,339.9z"/>
	<path d="M133.7,184c-6.9,0-12.6-5.8-12.6-12.8c0-6.7,5.6-12.3,12.3-12.5c6.9-0.1,12.8,5.5,12.9,12.5
		C146.3,178.1,140.5,184,133.7,184z"/>
	<path d="M133.7,268.1c-6.9,0.1-12.8-5.8-12.8-12.6c0-6.7,5.5-12.3,12.2-12.6c6.9-0.3,12.8,5.5,12.9,12.3
		C146.3,262.2,140.5,268.1,133.7,268.1z"/>
</g>
</svg>
