<?xml version="1.0" encoding="utf-8"?>
<!-- Generator: Adobe Illustrator 26.1.0, SVG Export Plug-In . SVG Version: 6.00 Build 0)  -->
<svg version="1.1" id="Layer_1" xmlns="http://www.w3.org/2000/svg" xmlns:xlink="http://www.w3.org/1999/xlink" x="0px" y="0px"
	 viewBox="0 0 576 576" fill="#dce8eb" style="enable-background:new 0 0 576 576;" xml:space="preserve">
<style type="text/css">
	.st0{stroke:#dce8eb;stroke-width:2;stroke-miterlimit:10;}
</style>
<g>
	<g>
		<path class="st0" d="M359.7,336.7c-31.7,25.7-68.5,33.9-106.8,37.5c-35.8,3.3-71.1,0.9-105.8-8.6c-20.8-5.7-40.3-13.9-57.2-28.7
			c-0.1,1.6-0.4,2.8-0.4,4c0,12.6,0.4,25.2-0.1,37.8c-0.5,11.7,4.4,20.4,12.8,27.7c11.7,10.1,25.3,16.3,39.7,20.9
			c36.3,11.7,73.7,13.8,111.4,10.7c0.8-0.1,1.6-0.3,2.5-0.3c4.9-0.1,8.1,2.6,8.5,7.2c0.4,4.5-2.3,8.2-7.2,8.5
			c-14.7,0.8-29.4,1.9-44.1,1.5c-29.8-0.8-58.9-5.4-86.8-16.6c-14.6-5.8-28.2-13.2-39.2-24.6c-9-9.4-13.6-20.3-13.6-33.5
			c0.1-76,0.4-152.1-0.1-228.1c-0.1-19.3,7.6-33.4,22.3-44.6c13.9-10.7,29.8-17.9,46.6-22.5c58.9-16.3,117.6-15.9,175.9,3.7
			c13.5,4.5,26.2,11.1,37.4,20.3c13.4,11,20.7,24.4,20.5,42.5c-0.5,73.7-0.1,147.4-0.3,221.1c0,8.3-2.4,11.8-7.9,11.8
			s-7.9-3.4-7.9-11.8C359.7,360.7,359.7,349,359.7,336.7z M226.2,89.1c-29.8,0.1-57.5,3.2-84.4,12.1c-15.5,5-30.3,11.7-42.3,23.2
			c-13.8,13.4-13.6,27.6,0.1,41.1c1.2,1.2,2.4,2.3,3.7,3.3c9.8,8.1,21.1,13.5,33,17.9c22.8,8.3,46.4,12.1,70.5,13.4
			c34.2,1.7,67.8-0.9,100.5-11.5c14.8-4.8,29.1-11.1,40.8-22c15.2-14,15.2-29,0.3-43.2c-8.9-8.3-19.3-13.9-30.5-18.3
			C287.9,93.1,256.5,89.5,226.2,89.1z M359.6,177.4c-17.2,15.1-36.8,23.3-57.5,29c-35.2,9.7-71.1,11.8-107.3,8.6
			c-27.7-2.5-54.7-8.1-79.7-20.7c-8.9-4.5-17.1-10.3-25.7-15.8c0,13.4,0.5,26.9-0.1,40.4c-0.5,12.1,4,21.6,13.4,28.3
			c8.9,6.4,18.5,12.3,28.6,16.7c24.1,10.3,49.8,14.3,75.9,15.6c35,1.7,69.4-1.1,102.8-12.5c13.4-4.5,26.1-10.5,37-19.9
			c6.5-5.7,12.3-12.2,12.6-21.2C360,210.2,359.6,194.3,359.6,177.4z M89.3,256.8c0,14.8,0.4,28.3-0.1,42
			c-0.5,11.9,4.5,20.7,13.1,28.1c10.1,8.6,21.7,14.6,34.2,18.8c53.8,17.9,108.2,18.3,162.8,4.2c17-4.4,33-11,46.6-22.4
			c9.1-7.6,14.8-16.7,13.8-29.3c-0.4-4.8-0.1-9.5-0.1-14.4c0-8.7,0-17.4,0-26.2c-7,4.6-13.4,9.4-20.3,13.2
			c-7,3.8-14.6,7.2-22.1,10.1c-24.8,9.3-50.5,13.2-76.7,14.4c-32.6,1.6-64.8-1.2-96.3-10.3C124.6,279.5,105.9,271.4,89.3,256.8z"/>
		<path d="M359.7,446.5c0-7.9-0.1-15.9,0-23.8c0.4-17.5,14.6-31.4,31.9-31.3c17.2,0,31.3,13.8,31.5,31.1c0.3,16.4,0.1,32.7,0,49.1
			c0,2.3-0.4,4.6-1.1,6.9c-1.3,4.6-4.5,8.9,0.4,13.8c2.4,2.4,0.3,6.4-2.6,8.6c-3.2,2.4-6.6,2.6-9.5,0c-2.4-2.1-4.1-2.1-6.9-0.9
			c-20.5,8.7-43.3-5.8-43.8-28.1C359.4,463.4,359.7,455,359.7,446.5z M405.3,474.9c0.7-0.4,1.2-0.9,1.9-1.3
			c0-17.6,0.4-35.2-0.1-52.9c-0.3-7.9-8.5-13.8-16.6-13.2c-7.8,0.5-14.6,6.8-14.7,14.7c-0.3,16.7-0.4,33.4,0,50.1
			c0.3,9.5,9.7,16.2,20.5,13.2c-3.7-3.2-6.9-5.4-9.7-8.2c-4-4-4.1-8.3-0.7-11.8c3.4-3.4,7.8-3.4,11.8,0.5
			C400.4,468.7,402.8,471.8,405.3,474.9z"/>
		<path d="M324.6,499.9c-14,6-30.7,1.1-39.2-11.5c-3.4-5.2-5.4-11.1-5-17.2c0.3-4.8,3.2-7.9,7.7-7.9c4.4-0.1,7.4,2.6,8.1,7.2
			c0.1,0.9,0,2,0.3,2.9c1.2,7.7,7.8,13.5,15.4,13.6c7.7,0.1,14.4-5.4,16-13c2-9.7-5.4-18.3-16-18.8c-18.5-0.9-32.1-15.4-31.3-33.5
			c0.7-16.4,14.7-29.9,31.1-30.1c16.8-0.3,31.3,12.8,32.3,29.4c0.4,6.2-2.4,9.9-7.4,10.2c-4.9,0.3-7.8-2.8-8.5-8.9
			c-0.9-9-8.1-15.4-16.8-14.8c-8.5,0.4-15.1,7.7-15,16.2c0.1,8.6,6.9,15.1,16,15.6c16.3,0.8,28.3,11.1,31.1,26.8
			c2.5,13.8-5.3,28.3-18.5,33.9C324.7,499.8,324.6,499.8,324.6,499.9z"/>
		<path d="M455.1,486.8c13.5,0,26.2,0,38.9,0c5.7,0,9.1,3.6,8.6,8.5c-0.5,4.4-2.9,7.2-7.4,7.3c-16,0.1-32.1,0.1-48.1,0
			c-5.2,0-7.9-3.4-7.9-9.4c0-16.8,0-33.8,0-50.6c0-14.2-0.1-28.5,0.1-42.7c0-2.5,1.9-6,4-7.2c2.1-1.2,6.4-1.2,8.1,0.3
			c2.1,1.7,3.4,5.6,3.6,8.5c0.3,26.5,0.1,53,0.1,79.3C455.1,482.7,455.1,484.4,455.1,486.8z"/>
	</g>
	<path d="M113.3,387.6c-0.1-6.5,5.3-12.1,11.8-12.1c6.5,0,12.1,5.4,11.9,11.9c0,6.4-5.2,11.7-11.5,11.9
		C119,399.5,113.4,394.1,113.3,387.6z"/>
	<path d="M125.2,240.3c-6.5,0-11.9-5.4-11.9-12.1c0-6.4,5.3-11.7,11.7-11.8c6.5-0.1,12.1,5.2,12.2,11.8
		C137.2,234.7,131.7,240.3,125.2,240.3z"/>
	<path d="M125.2,319.8c-6.5,0.1-12.1-5.4-12.1-11.9c0-6.4,5.2-11.7,11.5-11.9c6.5-0.3,12.1,5.2,12.2,11.7
		C137.2,314.2,131.7,319.8,125.2,319.8z"/>
</g>
</svg>
